<svg width="24" height="24" viewBox="0 0 24 24" fill="none" xmlns="http://www.w3.org/2000/svg">
<path d="M19.5 18.0038H4.5C4.1023 18.0034 3.721 17.8452 3.43978 17.564C3.15856 17.2828 3.0004 16.9015 3 16.5038V6.00378C3.0004 5.60608 3.15856 5.22478 3.43978 4.94356C3.721 4.66234 4.1023 4.50418 4.5 4.50378H19.5C19.8977 4.50418 20.279 4.66234 20.5602 4.94356C20.8414 5.22478 20.9996 5.60608 21 6.00378V16.5038C20.9994 16.9014 20.8412 17.2826 20.56 17.5638C20.2788 17.845 19.8976 18.0032 19.5 18.0038ZM4.5 6.00378V16.5038H19.5V6.00378H4.5Z" fill="#1B9145"/>
<path d="M1.5 19.5038H22.5V21.0038H1.5V19.5038Z" fill="#1B9145"/>
</svg>
