<svg width="23" height="23" viewBox="0 0 23 23" fill="none" xmlns="http://www.w3.org/2000/svg">
<path d="M18.1263 10.6003C18.8866 9.4063 19.1415 7.95916 18.8348 6.57725C18.5281 5.19534 17.685 3.99186 16.491 3.23156C15.297 2.47127 13.8498 2.21643 12.4679 2.52312C11.086 2.82981 9.88252 3.6729 9.12223 4.86692L9.08116 4.92165L9.04894 4.98202C8.31157 6.16429 8.06805 7.58887 8.37082 8.94895C8.41082 9.13563 8.46184 9.31978 8.52362 9.50043L4.74411 18.0937C4.62959 18.3537 4.61205 18.6461 4.69469 18.9179C4.77733 19.1897 4.95466 19.4229 5.19451 19.5751L6.46058 20.3812C6.69997 20.5342 6.98626 20.5962 7.2675 20.5561C7.54873 20.516 7.80627 20.3765 7.99339 20.1627L14.1811 13.1028C14.3709 13.0824 14.5593 13.0507 14.7454 13.008C16.1059 12.707 17.2937 11.8837 18.0531 10.7154L18.0941 10.6607L18.1263 10.6003ZM17.6452 6.89068C17.8406 7.76632 17.7448 8.68183 17.3724 9.49804L10.44 5.08384C10.9416 4.49734 11.5969 4.06239 12.3321 3.82787C13.0674 3.59334 13.8535 3.56855 14.602 3.75626C15.3506 3.94398 16.032 4.33678 16.5696 4.89049C17.1072 5.4442 17.4797 6.13688 17.6452 6.89068ZM7.09762 19.3808L5.83156 18.5746L9.22361 10.8732C10.0341 12.0178 11.261 12.7991 12.6411 13.0493L7.09762 19.3808ZM9.53012 8.69166C9.33467 7.81602 9.43047 6.90051 9.80293 6.08429L10.44 5.08384L17.3724 9.49804C16.8707 10.0845 15.5784 11.5199 14.8432 11.7545C14.1079 11.989 13.3218 12.0138 12.5732 11.8261C11.8247 11.6384 11.1433 11.2456 10.6057 10.6919C10.0681 10.1381 9.69564 9.44545 9.53012 8.69166Z" fill="#C4C4C4"/>
</svg>
